<svg width="544" height="544" xmlns="http://www.w3.org/2000/svg" xmlns:xlink="http://www.w3.org/1999/xlink" xml:space="preserve" overflow="hidden"><g transform="translate(-344 -88)"><g><g><g><path d="M390.221 270.153 450.255 450.255 510.289 270.153M300.17 450.255C272.198 450.255 258.211 450.255 247.179 445.686 232.469 439.593 220.782 427.904 214.689 413.196 210.119 402.162 210.119 388.177 210.119 360.204 210.119 332.231 210.119 318.246 214.689 307.212 220.782 292.503 232.469 280.816 247.179 274.723 258.211 270.153 272.198 270.153 300.17 270.153M216.122 600.34 504.285 600.34C537.907 600.34 554.72 600.34 567.561 593.796 578.856 588.042 588.042 578.856 593.796 567.561 600.34 554.72 600.34 537.907 600.34 504.285L600.34 216.122C600.34 182.5 600.34 165.689 593.796 152.847 588.042 141.551 578.856 132.367 567.561 126.611 554.72 120.068 537.907 120.068 504.285 120.068L216.122 120.068C182.5 120.068 165.689 120.068 152.847 126.611 141.551 132.367 132.367 141.551 126.611 152.847 120.068 165.689 120.068 182.5 120.068 216.122L120.068 504.285C120.068 537.907 120.068 554.72 126.611 567.561 132.367 578.856 141.551 588.042 152.847 593.796 165.689 600.34 182.5 600.34 216.122 600.34Z" stroke="#000000" stroke-width="60.034" stroke-linecap="round" stroke-linejoin="round" stroke-miterlimit="4" stroke-opacity="1" fill="none" fill-rule="nonzero" transform="matrix(1 0 0 1.00002 256.138 -0.208817)"/></g></g></g></g></svg>